<svg version="1.2" xmlns="http://www.w3.org/2000/svg" viewBox="0 0 450 450" width="40" height="40">
    <title>svg</title>
    <style>
        .s0 { fill: #000000 }
    </style>
    <g>
        <path class="s0"
              d="m203.7 28.1c-23.4 3-48.5 12.7-69.7 27.1-11.9 8.2-31.6 27.7-40.6 40.4-13.5 19.2-27.1 51.3-31.9 76.2-3.3 16.3-3.3 46.2-0.1 64.5 7.5 42.6 24.1 76.3 50.7 103.1 23.2 23.2 53.8 38.9 90.6 46.7 10 2.2 14.6 2.5 34.3 2.5 21.6 0 23.4-0.1 34.4-3.1 17.1-4.4 30.6-9.8 35.6-14.3 4-3.5 4.4-4.5 4.8-9.6 0.6-7.3-2.2-12-9.2-15.6-6.8-3.5-13.3-2.8-30 3.3-22.8 8.3-42.2 9.9-66.2 5.4-23-4.3-38.1-10.5-56.6-23.1-41.2-28.2-67.2-76.8-67.4-126.2-0.1-24.1 6.5-46.8 23.2-80.1 11.2-22.5 20.1-33.7 35.7-45.3 14.6-10.9 30.9-17.9 51.1-22.1 15.2-3.2 43.8-3.4 57.3-0.5 44.2 9.7 84.5 41.3 102.6 80.5 9.1 19.5 14.1 41.6 14.1 61.9 0 31.7-8.8 60.1-23.1 74.6-7.8 8-14.3 11.2-23.8 11.9-19.2 1.4-36.1-8.8-56.2-33.6-11-13.7-10.9-16.7 0.8-21.7 25.2-10.5 37.4-30.5 37.4-60.7 0-20-5.6-34.3-17.9-46-14-13.1-29.2-17.7-64-19.2-18.3-0.8-39.7 0.7-45.6 3.2-7.8 3.3-13 10.3-16.7 22.8-2.7 8.6-3.2 28.7-1.8 71.9 0.8 28.9 0.8 44.8 0 63.4-1.5 28.8-1.1 32 5.4 38.3 2.9 3 4.9 4 7.4 4 5.4 0 10.5-2.9 12.7-7.5 2.7-5.3 2.7-14.5 0-67.6-1.2-22.4-2.6-50.3-3.2-62-1.4-28.6 0-36 7.4-39.8 3.4-1.8 5.9-1.9 28.6-1.5 26.9 0.6 35.3 2 47.5 7.8 18.1 8.8 22.9 27.2 12.3 47.7-4.4 8.6-12.9 14.8-23.2 17.2-2.7 0.5-11.5 1.5-19.6 2-16.3 0.9-20.6 2.5-24.5 9-2.1 3.1-2.7 9.4-1.4 12.7 0.3 0.9 4.8 5 10 9.1 10.8 8.5 17.8 15.3 42.5 41.4 9.7 10.3 20.7 20.8 24.3 23.7 20.2 15.2 44.5 19.3 62.7 10.4 15.4-7.6 28.7-26.2 35.9-50.2 7.3-24.1 10.4-50.9 8.9-75.2-2.9-46.4-22.2-84.2-60.2-118.6-23.6-21.5-54.4-35.3-85.8-38.7-9.7-1.1-32.5-1.4-39.5-0.5zm-44 242.6l-0.5 17.4-0.1-21.7c0-11.9 0.2-19.8 0.6-17.4 0.3 2.3 0.3 12 0 21.7zm194.2 18c-0.4 0.7-3.3 2.4-6.3 4-14.4 7.4-17.5 9-17 9.5 1.9 1.9 16.2-4.9 25.9-12.2 3.1-2.3 2.8-1.9-1.4 2.5-7.8 8.1-14.5 11.2-26.4 11.7-6.4 0.3-12.2 0-17.1-1.1-7.3-1.6-20.2-6.9-19.1-7.8 0.2-0.3 4.6 0.6 9.8 1.9 5.5 1.5 12.5 2.4 17.2 2.5 7 0 8.9-0.4 16.2-3.9 4.7-2.2 8.8-3.8 9.2-3.5 0.5 0.4 1.3 0 1.7-0.6 0.3-0.6 2.1-1.8 4-2.6 4-1.7 4.1-1.7 3.3-0.4z"/>
        <path class="s0"
              d="m381.4 38.5c-13.5 3-19.9 6.3-25.2 13-3.5 4.5-4.6 8.4-3 10 0.8 0.8 1.8-0.1 3.2-3.5 2.8-6 6.3-10.1 9.7-11 2.4-0.7 2.3-0.4-0.9 2.1-5.3 4.4-12.4 17.4-9.3 17.4 0.7 0 2.2-2.1 3.2-4.6 5.3-14 19.7-21.8 37.4-20.4 7.2 0.5 7.7 0.4 5.6-1-1.6-1.1-14.4-4.2-14.4-3.5 0 0-2.8 0.8-6.3 1.5z"/>
        <path class="s0"
              d="m413.9 51.5c2.9 8.6 2.3 18.2-1.7 24.2-5.5 8.3-14.7 12.9-25.6 13-7.8 0-12.4-1.3-17.8-5.6-3.1-2.4-3.8-2.6-2.8-1 0.6 1.1 3.3 3.6 6.1 5.4 22 14 50.5-0.7 47.4-24.5-1-6.9-4.5-16.2-6.3-16.9-1.1-0.4-0.9 0.9 0.7 5.4z"/>
        <path class="s0"
              d="m390.7 53c-1.4 0.6-2.4 1.8-2.4 2.6 0 1.1-0.6 1.2-1.8 0.6-1.9-1.2-7.6 0.5-12.7 3.6-3.7 2.3-9.9 7.9-9.9 9 0 1.2 9 4.9 15.8 6.6 3.3 0.9 7 1.8 8.4 2.2 2.9 1 3-0.9 0.2-2.9-4.4-3.1-4.8-13.6-0.6-14.4 2-0.3 2-0.3 0.3 1.7-3.7 4.1 0.2 10.9 6.2 10.9 2.7 0 8.2-3.1 9.6-5.3 1.8-2.8 0.8-4.9-3.8-7.9-4.1-2.9-2.8-3.6 1.9-1.1 3.5 1.7 4.8 1.1 3.2-1.7-2.2-4.3-9.5-6.2-14.4-3.9z"/>
        <path class="s0"
              d="m333.4 249.1c-3.1 2.5-3.3 3.3-3.3 9.4 0 6.8 1.3 12.2 3 12.2 1.4 0 9-10.9 10.4-15.3 2.9-8-3.5-11.9-10.1-6.3z"/>
        <path class="s0"
              d="m314.9 265.2c-1.1 2.2-1.7 5.7-1.5 7.7 0.2 2.9 0.8 3.7 3 3.9 2.1 0.3 2.4 0.1 1.3-1-0.7-0.7-1.3-2.3-1.2-3.6 0-2 0.1-2 1.1 0.3 1.3 2.6 7.7 4.4 9.5 2.6 2.9-2.9-3.5-14-8-14-1.8 0-3 1.1-4.2 4.1z"/>
        <path class="s0"
              d="m17.1 410.3c-2.5 2.4-2.8 7.2-0.7 10.1 1.5 2 4.9 2 207.7 2 201.3 0 206.3 0 208.5-2 1.4-1.3 2.2-3.3 2.2-5.6 0-7.1 14.7-6.7-211.5-6.7-202.8 0-204.1 0-206.2 2.2z"/>
    </g>
</svg>